<svg width="20" height="20" viewBox="0 0 20 20" fill="none" xmlns="http://www.w3.org/2000/svg">
<path d="M9.44444 10.5556V14.4444C9.44444 14.6022 9.49778 14.7341 9.60444 14.84C9.71111 14.9459 9.84333 14.9993 10.0011 15C10.1589 15.0007 10.2907 14.9474 10.3967 14.84C10.5026 14.7326 10.5556 14.6007 10.5556 14.4444V10.5556H14.4444C14.6022 10.5556 14.7341 10.5022 14.84 10.3956C14.9459 10.2889 14.9993 10.1567 15 9.99889C15.0007 9.84111 14.9474 9.70926 14.84 9.60333C14.7326 9.49741 14.6007 9.44444 14.4444 9.44444H10.5556V5.55556C10.5556 5.39778 10.5022 5.26593 10.3956 5.16C10.2889 5.05407 10.1567 5.00074 9.99889 5C9.84111 4.99926 9.70926 5.05259 9.60333 5.16C9.49741 5.26741 9.44444 5.39926 9.44444 5.55556V9.44444H5.55556C5.39778 9.44444 5.26593 9.49778 5.16 9.60444C5.05407 9.71111 5.00074 9.84333 5 10.0011C4.99926 10.1589 5.05259 10.2907 5.16 10.3967C5.26741 10.5026 5.39926 10.5556 5.55556 10.5556H9.44444ZM10.0033 20C8.62037 20 7.32037 19.7378 6.10333 19.2133C4.8863 18.6881 3.82741 17.9756 2.92667 17.0756C2.02593 16.1756 1.31296 15.1178 0.787778 13.9022C0.262593 12.6867 0 11.387 0 10.0033C0 8.61963 0.262593 7.31963 0.787778 6.10333C1.31222 4.8863 2.0237 3.82741 2.92222 2.92667C3.82074 2.02593 4.87889 1.31296 6.09667 0.787778C7.31444 0.262593 8.61444 0 9.99667 0C11.3789 0 12.6789 0.262593 13.8967 0.787778C15.1137 1.31222 16.1726 2.02407 17.0733 2.92333C17.9741 3.82259 18.687 4.88074 19.2122 6.09778C19.7374 7.31481 20 8.61444 20 9.99667C20 11.3789 19.7378 12.6789 19.2133 13.8967C18.6889 15.1144 17.9763 16.1733 17.0756 17.0733C16.1748 17.9733 15.117 18.6863 13.9022 19.2122C12.6874 19.7381 11.3878 20.0007 10.0033 20Z" fill="#1E1E1E"/>
</svg>
