<svg width="20" height="24" viewBox="0 0 20 24" fill="none" xmlns="http://www.w3.org/2000/svg">
<path d="M2.82117 24C2.20695 24 1.6945 23.7947 1.28384 23.384C0.87317 22.9733 0.667393 22.4609 0.666504 21.8467V7.48667C0.666504 6.87333 0.872281 6.36133 1.28384 5.95067C1.69539 5.54 2.20784 5.33422 2.82117 5.33333H5.33317V4.66667C5.33317 3.37067 5.78695 2.26889 6.6945 1.36133C7.60206 0.453778 8.70384 0 9.99984 0C11.2958 0 12.3976 0.453778 13.3052 1.36133C14.2127 2.26889 14.6665 3.37067 14.6665 4.66667V5.33333H17.1798C17.7932 5.33333 18.3052 5.53911 18.7158 5.95067C19.1265 6.36222 19.3323 6.87467 19.3332 7.488V21.8467C19.3332 22.46 19.1274 22.9724 18.7158 23.384C18.3043 23.7956 17.7923 24.0009 17.1798 24H2.82117ZM2.82117 22.6667H17.1798C17.3843 22.6667 17.5723 22.5813 17.7438 22.4107C17.9154 22.24 18.0007 22.0516 17.9998 21.8453V7.488C17.9998 7.28267 17.9145 7.09422 17.7438 6.92267C17.5732 6.75111 17.3847 6.66578 17.1785 6.66667H14.6665V10C14.6665 10.1902 14.6029 10.3489 14.4758 10.476C14.3487 10.6031 14.1901 10.6667 13.9998 10.6667C13.8096 10.6667 13.6509 10.6031 13.5238 10.476C13.3967 10.3489 13.3332 10.1902 13.3332 10V6.66667H6.6665V10C6.6665 10.1902 6.60295 10.3489 6.47584 10.476C6.34873 10.6031 6.19006 10.6667 5.99984 10.6667C5.80961 10.6667 5.65095 10.6031 5.52384 10.476C5.39673 10.3489 5.33317 10.1902 5.33317 10V6.66667H2.82117C2.61584 6.66667 2.42739 6.752 2.25584 6.92267C2.08428 7.09333 1.99895 7.28178 1.99984 7.488V21.8467C1.99984 22.0511 2.08517 22.2391 2.25584 22.4107C2.4265 22.5822 2.6145 22.6676 2.81984 22.6667M6.6665 5.33333H13.3332V4.66667C13.3332 3.728 13.0123 2.93778 12.3705 2.296C11.7287 1.65422 10.9385 1.33333 9.99984 1.33333C9.06117 1.33333 8.27095 1.65422 7.62917 2.296C6.98739 2.93778 6.6665 3.728 6.6665 4.66667V5.33333Z" fill="white"/>
</svg>
