<svg width="34" height="29" viewBox="0 0 34 29" fill="none" xmlns="http://www.w3.org/2000/svg">
<path d="M16.9633 29.0057C16.6077 29.0057 16.2551 28.9409 15.9055 28.8113C15.5559 28.683 15.2486 28.4856 14.9833 28.2192L12.8787 26.3217C9.61533 23.3578 6.737 20.4752 4.24367 17.6738C1.74789 14.8737 0.5 11.963 0.5 8.94165C0.5 6.60965 1.292 4.65165 2.876 3.06765C4.46 1.48365 6.418 0.69165 8.75 0.69165C10.0871 0.69165 11.4798 1.02959 12.9282 1.70548C14.3765 2.38137 15.7338 3.65615 17 5.52982C18.2674 3.65615 19.6247 2.38137 21.0718 1.70548C22.5189 1.02959 23.9117 0.69165 25.25 0.69165C27.582 0.69165 29.54 1.48365 31.124 3.06765C32.708 4.65165 33.5 6.60965 33.5 8.94165C33.5 12.0326 32.2014 15.0039 29.6042 17.8553C27.0069 20.7068 24.1641 23.5313 21.0755 26.329L18.9818 28.2192C18.7154 28.4856 18.4019 28.683 18.0413 28.8113C17.6808 28.9397 17.3221 29.0044 16.9652 29.0057M16.1035 7.43282C15.0059 5.66304 13.865 4.40232 12.6807 3.65065C11.4963 2.90021 10.1861 2.52498 8.75 2.52498C6.91667 2.52498 5.38889 3.13609 4.16667 4.35832C2.94444 5.58054 2.33333 7.10832 2.33333 8.94165C2.33333 10.2959 2.7165 11.6843 3.48283 13.107C4.24917 14.5309 5.27828 15.989 6.57017 17.4813C7.86083 18.9724 9.34522 20.499 11.0233 22.061C12.699 23.6218 14.4443 25.2284 16.2593 26.8808C16.4708 27.069 16.7177 27.1632 17 27.1632C17.2823 27.1632 17.5292 27.069 17.7407 26.8808C19.5557 25.2284 21.3016 23.6212 22.9785 22.0592C24.6554 20.4996 26.1398 18.9736 27.4317 17.4813C28.7223 15.9878 29.7508 14.5297 30.5172 13.107C31.2835 11.6843 31.6667 10.2959 31.6667 8.94165C31.6667 7.10832 31.0556 5.58054 29.8333 4.35832C28.6111 3.13609 27.0833 2.52498 25.25 2.52498C23.8139 2.52498 22.5037 2.90082 21.3193 3.65248C20.1338 4.40293 18.9928 5.66304 17.8965 7.43282C17.7987 7.59782 17.6679 7.72126 17.5042 7.80315C17.3404 7.88504 17.1723 7.92598 17 7.92598C16.8277 7.92598 16.6596 7.88504 16.4958 7.80315C16.3321 7.72126 16.2019 7.59782 16.1053 7.43282" fill="#141414"/>
</svg>
