<svg width="20" height="22" viewBox="0 0 20 22" fill="none" xmlns="http://www.w3.org/2000/svg">
<path d="M4.15451 21.6667C3.55718 21.6667 3.04874 21.4569 2.62918 21.0373C2.20962 20.6178 1.99985 20.1098 1.99985 19.5133V3.00001H1.33318C1.14385 3.00001 0.98518 2.93646 0.85718 2.80935C0.72918 2.68224 0.665624 2.52357 0.666513 2.33335C0.667402 2.14313 0.730958 1.98446 0.85718 1.85735C0.983402 1.73024 1.14207 1.66668 1.33318 1.66668H5.99985C5.99985 1.39113 6.10207 1.15113 6.30651 0.946681C6.51096 0.742237 6.75096 0.640015 7.02651 0.640015H12.9732C13.2487 0.640015 13.4887 0.742237 13.6932 0.946681C13.8976 1.15113 13.9998 1.39113 13.9998 1.66668H18.6665C18.8567 1.66668 19.0154 1.73024 19.1425 1.85735C19.2696 1.98446 19.3332 2.14313 19.3332 2.33335C19.3332 2.52357 19.2696 2.68224 19.1425 2.80935C19.0154 2.93646 18.8567 3.00001 18.6665 3.00001H17.9998V19.5133C17.9998 20.1089 17.7901 20.6169 17.3705 21.0373C16.951 21.4569 16.443 21.6667 15.8465 21.6667H4.15451ZM16.6665 3.00001H3.33318V19.5133C3.33318 19.7525 3.41007 19.9489 3.56385 20.1027C3.71762 20.2565 3.91451 20.3333 4.15451 20.3333H15.8465C16.0856 20.3333 16.2821 20.2565 16.4358 20.1027C16.5896 19.9489 16.6665 19.7525 16.6665 19.5133V3.00001ZM9.99985 12.6107L12.9945 15.6053C13.119 15.7298 13.2718 15.7965 13.4532 15.8053C13.6345 15.8142 13.7963 15.7476 13.9385 15.6053C14.0807 15.4631 14.1518 15.3058 14.1518 15.1333C14.1518 14.9609 14.0807 14.8036 13.9385 14.6613L10.9438 11.6667L13.9385 8.67201C14.063 8.54757 14.1296 8.39468 14.1385 8.21335C14.1474 8.03201 14.0807 7.87024 13.9385 7.72801C13.7963 7.58579 13.639 7.51468 13.4665 7.51468C13.2941 7.51468 13.1367 7.58579 12.9945 7.72801L9.99985 10.7227L7.00518 7.72801C6.88073 7.60357 6.72785 7.5369 6.54651 7.52801C6.36518 7.51912 6.2034 7.58579 6.06118 7.72801C5.91896 7.87024 5.84785 8.02757 5.84785 8.20001C5.84785 8.37246 5.91896 8.52979 6.06118 8.67201L9.05585 11.6667L6.06118 14.6613C5.93673 14.7858 5.87007 14.9387 5.86118 15.12C5.85229 15.3013 5.91896 15.4631 6.06118 15.6053C6.2034 15.7476 6.36073 15.8187 6.53318 15.8187C6.70562 15.8187 6.86296 15.7476 7.00518 15.6053L9.99985 12.6107Z" fill="#FF0000"/>
</svg>
