<svg width="72" height="72" viewBox="0 0 72 72" fill="none" xmlns="http://www.w3.org/2000/svg">
<path d="M30.248 51.632L55.832 26.048L53 23.216L30.248 45.968L18.848 34.568L16.016 37.4L30.248 51.632ZM36.012 72C31.036 72 26.356 71.056 21.972 69.168C17.5907 67.2773 13.7787 64.712 10.536 61.472C7.29333 58.232 4.72667 54.424 2.836 50.048C0.945334 45.672 0 40.9933 0 36.012C0 31.0307 0.945334 26.3507 2.836 21.972C4.724 17.5907 7.28533 13.7787 10.52 10.536C13.7547 7.29333 17.564 4.72667 21.948 2.836C26.332 0.945334 31.012 0 35.988 0C40.964 0 45.644 0.945334 50.028 2.836C54.4093 4.724 58.2213 7.28667 61.464 10.524C64.7067 13.7613 67.2733 17.5707 69.164 21.952C71.0547 26.3333 72 31.012 72 35.988C72 40.964 71.056 45.644 69.168 50.028C67.28 54.412 64.7147 58.224 61.472 61.464C58.2293 64.704 54.4213 67.2707 50.048 69.164C45.6747 71.0573 40.996 72.0027 36.012 72Z" fill="black"/>
</svg>
