<svg width="20" height="20" viewBox="0 0 20 20" fill="#000" xmlns="http://www.w3.org/2000/svg">
<path d="M6.67114 1.4245L1.13229 6.96334C1.01054 7.0851 0.86096 7.15032 0.68355 7.15902C0.50614 7.16771 0.347863 7.10249 0.208717 6.96334C0.0695724 6.8242 0 6.67027 0 6.50156C0 6.33284 0.0695724 6.17891 0.208717 6.03977L5.9341 0.315686C6.14456 0.105229 6.39024 0 6.67114 0C6.95204 0 7.19815 0.105229 7.40948 0.315686L13.1336 6.03977C13.2553 6.16152 13.3205 6.31154 13.3292 6.48982C13.3379 6.66636 13.2727 6.8242 13.1336 6.96334C12.9944 7.10249 12.8405 7.17206 12.6718 7.17206C12.5031 7.17206 12.3491 7.10249 12.21 6.96334L6.67114 1.4245Z" fill="white" fill-opacity="0.8"/>
</svg>
