<svg width="20" height="20" viewBox="0 0 20 20" fill="#000" xmlns="http://www.w3.org/2000/svg">
<path d="M9.9939 13.834C9.85385 13.834 9.72424 13.8109 9.60507 13.7648C9.48589 13.7187 9.36977 13.6387 9.25668 13.5247L3.52986 7.7992C3.40808 7.67742 3.34284 7.5278 3.33414 7.35035C3.32544 7.17289 3.39068 7.01458 3.52986 6.8754C3.66904 6.73622 3.82301 6.66663 3.99177 6.66663C4.16052 6.66663 4.31449 6.73622 4.45367 6.8754L9.9939 12.4156L15.5341 6.8754C15.6559 6.75361 15.806 6.68837 15.9843 6.67967C16.1609 6.67098 16.3188 6.73622 16.4579 6.8754C16.5971 7.01458 16.6667 7.16854 16.6667 7.3373C16.6667 7.50605 16.5971 7.66002 16.4579 7.7992L10.7311 13.5247C10.618 13.6387 10.5019 13.7187 10.3827 13.7648C10.2644 13.8109 10.1348 13.834 9.9939 13.834Z" fill="#2E2E2E" fill-opacity="0.8"/>
</svg>
