<svg width="14" height="8" viewBox="0 0 14 8" fill="none" xmlns="http://www.w3.org/2000/svg">
<path d="M7.00598 0.165982C7.14603 0.165982 7.27564 0.189033 7.39481 0.235137C7.51398 0.28124 7.63011 0.361269 7.7432 0.475222L13.47 6.20074C13.5918 6.32252 13.657 6.47214 13.6657 6.64959C13.6744 6.82705 13.6092 6.98536 13.47 7.12454C13.3308 7.26372 13.1769 7.33331 13.0081 7.33331C12.8394 7.33331 12.6854 7.26372 12.5462 7.12454L7.00598 1.58431L1.46575 7.12454C1.34396 7.24633 1.19391 7.31157 1.01559 7.32026C0.839004 7.32896 0.68112 7.26372 0.541941 7.12454C0.402761 6.98536 0.333171 6.8314 0.333171 6.66264C0.333171 6.49388 0.402761 6.33992 0.541941 6.20074L6.26876 0.475222C6.38184 0.361269 6.49797 0.28124 6.61714 0.235137C6.73545 0.189033 6.86506 0.165982 7.00598 0.165982Z" fill="#141414"/>
</svg>
