<svg width="16" height="12" viewBox="0 0 16 12" fill="none" xmlns="http://www.w3.org/2000/svg">
<path d="M0.500007 11.27C0.358007 11.27 0.23934 11.2216 0.144007 11.125C0.0486736 11.0283 0.000673516 10.9093 6.84931e-06 10.768C-0.000659817 10.6266 0.0473402 10.508 0.144007 10.412C0.240674 10.316 0.35934 10.2683 0.500007 10.269H15.5C15.642 10.269 15.7607 10.317 15.856 10.413C15.952 10.509 16 10.628 16 10.77C16 10.912 15.952 11.0306 15.856 11.126C15.76 11.2213 15.6413 11.269 15.5 11.269L0.500007 11.27ZM0.500007 6.49996C0.358007 6.49996 0.23934 6.45196 0.144007 6.35596C0.0486736 6.25996 0.000673516 6.14096 6.84931e-06 5.99896C-0.000659817 5.85696 0.0473402 5.73829 0.144007 5.64296C0.240674 5.54762 0.35934 5.49996 0.500007 5.49996H15.5C15.642 5.49996 15.7607 5.54796 15.856 5.64396C15.9513 5.73996 15.9993 5.85896 16 6.00096C16.0007 6.14296 15.9527 6.26162 15.856 6.35696C15.7593 6.45229 15.6407 6.49996 15.5 6.49996H0.500007ZM0.500007 1.72996C0.358007 1.72996 0.23934 1.68229 0.144007 1.58696C0.0480069 1.49096 6.84931e-06 1.37196 6.84931e-06 1.22996C6.84931e-06 1.08796 0.0480069 0.96929 0.144007 0.873957C0.240007 0.778624 0.358674 0.730957 0.500007 0.730957H15.5C15.642 0.730957 15.7607 0.778957 15.856 0.874957C15.9513 0.970957 15.9993 1.08929 16 1.22996C16.0007 1.37062 15.9527 1.48929 15.856 1.58596C15.7593 1.68262 15.6407 1.73062 15.5 1.72996H0.500007Z" fill="white"/>
</svg>
