<svg width="16" height="16" viewBox="0 0 16 16" fill="none" xmlns="http://www.w3.org/2000/svg">
<path d="M8.01398 9.28954L1.57352 15.73C1.38226 15.9213 1.17069 16.0109 0.938794 15.9989C0.706899 15.987 0.495325 15.886 0.304071 15.6959C0.112818 15.5059 0.0171914 15.2883 0.0171914 15.0433C0.0171914 14.8006 0.112818 14.5837 0.304071 14.3924L6.71046 7.98603L0.270005 1.59039C0.0787516 1.39914 -0.0108986 1.18159 0.0010547 0.93774C0.013008 0.693892 0.114013 0.476938 0.304071 0.28688C0.494129 0.0968218 0.711681 0.00119533 0.956724 0C1.19938 0 1.41633 0.0956264 1.60758 0.28688L8.01398 6.72734L14.4096 0.28688C14.6009 0.0956264 14.8124 0 15.0443 0C15.2762 0 15.4878 0.0956264 15.6791 0.28688C15.8775 0.48411 15.9767 0.702856 15.9767 0.943118C15.9767 1.18338 15.8775 1.39854 15.6791 1.5886L9.27266 7.98603L15.7131 14.4265C15.9044 14.6177 16 14.8293 16 15.0612C16 15.2931 15.9044 15.5047 15.7131 15.6959C15.5159 15.8944 15.2971 15.9936 15.0569 15.9936C14.8166 15.9936 14.6015 15.8944 14.4114 15.6959L8.01398 9.28954Z" fill="white"/>
</svg>
