<svg width="14" height="21" viewBox="0 0 20 21" fill="none" xmlns="http://www.w3.org/2000/svg">
<path d="M10.0009 0.665833C7.28508 0.665833 6.94424 0.677708 5.87756 0.72625C4.81297 0.775001 4.08629 0.943544 3.45045 1.19084C2.79274 1.44626 2.23481 1.78793 1.67898 2.34398C1.12272 2.89982 0.78105 3.45774 0.524797 4.11524C0.276878 4.75129 0.108126 5.47818 0.0602089 6.54235C0.0125 7.60903 0 7.95008 0 10.6659C0 13.3818 0.0120837 13.7216 0.0604175 14.7883C0.109376 15.8529 0.27792 16.5795 0.525006 17.2154C0.780633 17.8731 1.1223 18.431 1.67835 18.9869C2.23398 19.5431 2.7919 19.8856 3.4492 20.141C4.08546 20.3883 4.81234 20.5569 5.87673 20.6056C6.94341 20.6542 7.28403 20.666 9.99969 20.666C12.7158 20.666 13.0556 20.6542 14.1222 20.6056C15.1868 20.5569 15.9143 20.3883 16.5506 20.141C17.2081 19.8856 17.7652 19.5431 18.3208 18.9869C18.8771 18.431 19.2187 17.8731 19.475 17.2156C19.7208 16.5795 19.8896 15.8527 19.9396 14.7885C19.9875 13.7218 20 13.3818 20 10.6659C20 7.95008 19.9875 7.60924 19.9396 6.54256C19.8896 5.47797 19.7208 4.75129 19.475 4.11545C19.2187 3.45774 18.8771 2.89982 18.3208 2.34398C17.7646 1.78772 17.2083 1.44605 16.55 1.19084C15.9125 0.943544 15.1854 0.775001 14.1208 0.72625C13.0541 0.677708 12.7145 0.665833 9.99781 0.665833H10.0009ZM9.10385 2.46794C9.3701 2.46752 9.66718 2.46794 10.0009 2.46794C12.671 2.46794 12.9874 2.47752 14.0418 2.52544C15.0168 2.57002 15.546 2.73294 15.8985 2.86981C16.3652 3.05107 16.6979 3.26774 17.0477 3.61774C17.3977 3.96774 17.6143 4.30108 17.796 4.76775C17.9329 5.11984 18.096 5.64901 18.1404 6.62402C18.1883 7.6782 18.1987 7.99487 18.1987 10.6636C18.1987 13.3324 18.1883 13.6491 18.1404 14.7033C18.0958 15.6783 17.9329 16.2075 17.796 16.5595C17.6148 17.0262 17.3977 17.3585 17.0477 17.7083C16.6977 18.0583 16.3654 18.275 15.8985 18.4562C15.5464 18.5937 15.0168 18.7562 14.0418 18.8008C12.9876 18.8487 12.671 18.8592 10.0009 18.8592C7.3307 18.8592 7.01424 18.8487 5.96006 18.8008C4.98505 18.7558 4.45588 18.5929 4.10317 18.456C3.6365 18.2748 3.30316 18.0581 2.95316 17.7081C2.60315 17.3581 2.38648 17.0256 2.20481 16.5587C2.06794 16.2066 1.90481 15.6775 1.86044 14.7024C1.81252 13.6483 1.80294 13.3316 1.80294 10.6611C1.80294 7.9907 1.81252 7.6757 1.86044 6.62152C1.90502 5.64651 2.06794 5.11734 2.20481 4.76484C2.38607 4.29816 2.60315 3.96483 2.95316 3.61482C3.30316 3.26482 3.6365 3.04815 4.10317 2.86648C4.45567 2.72898 4.98505 2.56648 5.96006 2.52169C6.88257 2.48002 7.24008 2.46752 9.10385 2.46544V2.46794ZM15.3389 4.12837C14.6764 4.12837 14.1389 4.66525 14.1389 5.32797C14.1389 5.99047 14.6764 6.52798 15.3389 6.52798C16.0014 6.52798 16.5389 5.99047 16.5389 5.32797C16.5389 4.66546 16.0014 4.12795 15.3389 4.12795V4.12837ZM10.0009 5.53047C7.16487 5.53047 4.86547 7.82987 4.86547 10.6659C4.86547 13.502 7.16487 15.8004 10.0009 15.8004C12.837 15.8004 15.1356 13.502 15.1356 10.6659C15.1356 7.82987 12.837 5.53047 10.0009 5.53047ZM10.0009 7.33257C11.8418 7.33257 13.3343 8.82488 13.3343 10.6659C13.3343 12.5068 11.8418 13.9993 10.0009 13.9993C8.15988 13.9993 6.66757 12.5068 6.66757 10.6659C6.66757 8.82488 8.15988 7.33257 10.0009 7.33257Z" fill="white"/>
</svg>
