<svg width="24" height="22" viewBox="0 0 24 22" fill="none" xmlns="http://www.w3.org/2000/svg">
<path d="M11.9733 21.4587C11.7147 21.4587 11.4582 21.4116 11.204 21.3174C10.9498 21.224 10.7262 21.0805 10.5333 20.8867L9.00267 19.5067C6.62933 17.3511 4.536 15.2547 2.72267 13.2174C0.907555 11.1809 0 9.06403 0 6.8667C0 5.1707 0.576 3.7467 1.728 2.5947C2.88 1.4427 4.304 0.866699 6 0.866699C6.97244 0.866699 7.98533 1.11248 9.03867 1.60403C10.092 2.09559 11.0791 3.0227 12 4.38537C12.9218 3.0227 13.9089 2.09559 14.9613 1.60403C16.0138 1.11248 17.0267 0.866699 18 0.866699C19.696 0.866699 21.12 1.4427 22.272 2.5947C23.424 3.7467 24 5.1707 24 6.8667C24 9.1147 23.0556 11.2756 21.1667 13.3494C19.2778 15.4231 17.2102 17.4774 14.964 19.512L13.4413 20.8867C13.2476 21.0805 13.0196 21.224 12.7573 21.3174C12.4951 21.4107 12.2342 21.4578 11.9747 21.4587M11.348 5.76937C10.5498 4.48225 9.72 3.56537 8.85867 3.0187C7.99733 2.47292 7.04444 2.20003 6 2.20003C4.66667 2.20003 3.55556 2.64448 2.66667 3.53337C1.77778 4.42225 1.33333 5.53337 1.33333 6.8667C1.33333 7.85159 1.612 8.86137 2.16933 9.89603C2.72667 10.9316 3.47511 11.992 4.41467 13.0774C5.35333 14.1618 6.43289 15.272 7.65333 16.408C8.872 17.5431 10.1413 18.7116 11.4613 19.9134C11.6151 20.0503 11.7947 20.1187 12 20.1187C12.2053 20.1187 12.3849 20.0503 12.5387 19.9134C13.8587 18.7116 15.1284 17.5427 16.348 16.4067C17.5676 15.2725 18.6471 14.1627 19.5867 13.0774C20.5253 11.9911 21.2733 10.9307 21.8307 9.89603C22.388 8.86137 22.6667 7.85159 22.6667 6.8667C22.6667 5.53337 22.2222 4.42225 21.3333 3.53337C20.4444 2.64448 19.3333 2.20003 18 2.20003C16.9556 2.20003 16.0027 2.47337 15.1413 3.02003C14.2791 3.56581 13.4493 4.48225 12.652 5.76937C12.5809 5.88937 12.4858 5.97914 12.3667 6.0387C12.2476 6.09825 12.1253 6.12803 12 6.12803C11.8747 6.12803 11.7524 6.09825 11.6333 6.0387C11.5142 5.97914 11.4196 5.88937 11.3493 5.76937" fill="white"/>
</svg>
