<svg width="24" height="22" viewBox="0 0 24 22" fill="none" xmlns="http://www.w3.org/2000/svg">
<path d="M11.9733 21.4587C11.7147 21.4587 11.4582 21.4116 11.204 21.3174C10.9498 21.224 10.7262 21.0805 10.5333 20.8867L9.00267 19.5067C6.62933 17.3511 4.536 15.2547 2.72267 13.2174C0.907555 11.1809 0 9.06403 0 6.8667C0 5.1707 0.576 3.7467 1.728 2.5947C2.88 1.4427 4.304 0.866699 6 0.866699C6.97244 0.866699 7.98533 1.11248 9.03867 1.60403C10.092 2.09559 11.0791 3.0227 12 4.38537C12.9218 3.0227 13.9089 2.09559 14.9613 1.60403C16.0138 1.11248 17.0267 0.866699 18 0.866699C19.696 0.866699 21.12 1.4427 22.272 2.5947C23.424 3.7467 24 5.1707 24 6.8667C24 9.1147 23.0556 11.2756 21.1667 13.3494C19.2778 15.4231 17.2102 17.4774 14.964 19.512L13.4413 20.8867C13.2476 21.0805 13.0196 21.224 12.7573 21.3174C12.4951 21.4107 12.2342 21.4578 11.9747 21.4587" fill="white"/>
</svg>
