<svg width="20" height="18" viewBox="0 0 20 18" fill="none" xmlns="http://www.w3.org/2000/svg">
<path d="M9.99984 8.18005C8.89228 8.18005 7.94873 7.79028 7.16917 7.01072C6.38961 6.23117 5.99984 5.28761 5.99984 4.18005C5.99984 3.0725 6.38961 2.12894 7.16917 1.34939C7.94873 0.569831 8.89228 0.180054 9.99984 0.180054C11.1074 0.180054 12.0509 0.569831 12.8305 1.34939C13.6101 2.12894 13.9998 3.0725 13.9998 4.18005C13.9998 5.28761 13.6101 6.23117 12.8305 7.01072C12.0509 7.79028 11.1074 8.18005 9.99984 8.18005ZM0.666504 16.4361V15.6254C0.666504 15.0752 0.826504 14.5605 1.1465 14.0814C1.46739 13.6014 1.8985 13.2289 2.43984 12.9641C3.6985 12.3605 4.95806 11.9081 6.2185 11.6067C7.47806 11.3045 8.7385 11.1534 9.99984 11.1534C11.2612 11.1534 12.5221 11.3045 13.7825 11.6067C15.0429 11.9089 16.3016 12.3614 17.5585 12.9641C18.1007 13.2289 18.5318 13.6014 18.8518 14.0814C19.1727 14.5605 19.3332 15.0752 19.3332 15.6254V16.4361C19.3332 16.8272 19.2003 17.1561 18.9345 17.4227C18.6687 17.6876 18.3398 17.8201 17.9478 17.8201H2.05317C1.66117 17.8201 1.33228 17.6872 1.0665 17.4214C0.800726 17.1556 0.667393 16.8272 0.666504 16.4361Z" fill="white"/>
</svg>
