<svg width="20" height="18" viewBox="0 0 20 18" fill="none" xmlns="http://www.w3.org/2000/svg">
<path d="M9.99984 8.17998C8.90028 8.17998 7.9585 7.78798 7.1745 7.00398C6.3905 6.21998 5.99895 5.27865 5.99984 4.17998C6.00073 3.08131 6.39228 2.13909 7.1745 1.35331C7.95673 0.567534 8.8985 0.176867 9.99984 0.181312C11.1012 0.185756 12.0429 0.576867 12.8252 1.35464C13.6074 2.13242 13.9989 3.07464 13.9998 4.18131C14.0007 5.28798 13.6092 6.22931 12.8252 7.00531C12.0412 7.78131 11.0994 8.17198 9.99984 8.17998ZM0.666504 16.4373V15.6266C0.666504 15.0764 0.826504 14.5618 1.1465 14.0826C1.46739 13.6026 1.8985 13.2302 2.43984 12.9653C3.6985 12.3618 4.95806 11.9093 6.2185 11.608C7.47806 11.3058 8.7385 11.1546 9.99984 11.1546C11.2612 11.1546 12.5221 11.3058 13.7825 11.608C15.0429 11.9102 16.3016 12.3626 17.5585 12.9653C18.1007 13.2302 18.5318 13.6026 18.8518 14.0826C19.1727 14.5618 19.3332 15.0764 19.3332 15.6266V16.4373C19.3332 16.8284 19.2003 17.1573 18.9345 17.424C18.6687 17.6889 18.3398 17.8213 17.9478 17.8213H2.05317C1.66117 17.8213 1.33228 17.6884 1.0665 17.4226C0.800726 17.1569 0.667393 16.8293 0.666504 16.4373ZM1.99984 16.488H17.9998V15.6253C17.9998 15.3302 17.9043 15.0524 17.7132 14.792C17.5229 14.5324 17.2594 14.3129 16.9225 14.1333C15.8256 13.6018 14.6941 13.1946 13.5278 12.912C12.3616 12.6293 11.1856 12.488 9.99984 12.488C8.81406 12.488 7.63806 12.6293 6.47184 12.912C5.30561 13.1946 4.17406 13.6018 3.07717 14.1333C2.73939 14.3129 2.47584 14.5324 2.2865 14.792C2.09539 15.0524 1.99984 15.3306 1.99984 15.6266V16.488ZM9.99984 6.84664C10.7332 6.84664 11.3612 6.58531 11.8838 6.06264C12.4065 5.53998 12.6674 4.91198 12.6665 4.17864C12.6656 3.44531 12.4047 2.81776 11.8838 2.29598C11.3629 1.7742 10.7349 1.51287 9.99984 1.51198C9.26473 1.51109 8.63717 1.77242 8.11717 2.29598C7.59717 2.81953 7.33584 3.44709 7.33317 4.17864C7.3305 4.9102 7.59184 5.5382 8.11717 6.06264C8.6425 6.58709 9.27006 6.84798 9.99984 6.84531" fill="white"/>
</svg>
