<svg width="120" height="24" viewBox="0 0 120 24" fill="none" xmlns="http://www.w3.org/2000/svg">
<path d="M12.4019 17.2197L7.93292 19.9183C7.8016 19.9831 7.67972 20.0094 7.56728 19.9971C7.45566 19.9839 7.34691 19.9453 7.24103 19.8813C7.13434 19.8157 7.05391 19.7229 6.99974 19.6031C6.94557 19.4833 6.94064 19.3524 6.98496 19.2104L8.17422 14.1505L4.24082 10.7403C4.13002 10.6501 4.05697 10.5421 4.02168 10.4166C3.98639 10.291 3.99418 10.1707 4.04507 10.0558C4.09596 9.94093 4.16367 9.84655 4.2482 9.77268C4.33356 9.70127 4.44846 9.65285 4.59291 9.62741L9.78328 9.17436L11.8072 4.38288C11.863 4.24745 11.9435 4.14979 12.0485 4.08987C12.1536 4.02996 12.2714 4 12.4019 4C12.5323 4 12.6505 4.02996 12.7564 4.08987C12.8623 4.14979 12.9423 4.24745 12.9965 4.38288L15.0204 9.17436L20.2096 9.62741C20.3548 9.65203 20.4701 9.70086 20.5555 9.77391C20.6409 9.84614 20.709 9.94011 20.7599 10.0558C20.8099 10.1707 20.8173 10.291 20.782 10.4166C20.7467 10.5421 20.6737 10.6501 20.5629 10.7403L16.6295 14.1505L17.8187 19.2104C17.8647 19.3507 17.8602 19.4812 17.8052 19.6019C17.7502 19.7225 17.6694 19.8153 17.5627 19.8801C17.4576 19.9458 17.3489 19.9847 17.2364 19.9971C17.1248 20.0094 17.0033 19.9831 16.872 19.9183L12.4019 17.2197Z" fill="#1E1E1E"/>
<path d="M36.4019 17.2197L31.9329 19.9183C31.8016 19.9831 31.6797 20.0094 31.5673 19.9971C31.4557 19.9839 31.3469 19.9453 31.241 19.8813C31.1343 19.8157 31.0539 19.7229 30.9997 19.6031C30.9456 19.4833 30.9406 19.3524 30.985 19.2104L32.1742 14.1505L28.2408 10.7403C28.13 10.6501 28.057 10.5421 28.0217 10.4166C27.9864 10.291 27.9942 10.1707 28.0451 10.0558C28.096 9.94093 28.1637 9.84655 28.2482 9.77268C28.3336 9.70127 28.4485 9.65285 28.5929 9.62741L33.7833 9.17436L35.8072 4.38288C35.863 4.24745 35.9435 4.14979 36.0485 4.08987C36.1536 4.02996 36.2714 4 36.4019 4C36.5323 4 36.6505 4.02996 36.7564 4.08987C36.8623 4.14979 36.9423 4.24745 36.9965 4.38288L39.0204 9.17436L44.2096 9.62741C44.3548 9.65203 44.4701 9.70086 44.5555 9.77391C44.6409 9.84614 44.709 9.94011 44.7599 10.0558C44.8099 10.1707 44.8173 10.291 44.782 10.4166C44.7467 10.5421 44.6737 10.6501 44.5629 10.7403L40.6295 14.1505L41.8187 19.2104C41.8647 19.3507 41.8602 19.4812 41.8052 19.6019C41.7502 19.7225 41.6694 19.8153 41.5627 19.8801C41.4576 19.9458 41.3489 19.9847 41.2364 19.9971C41.1248 20.0094 41.0033 19.9831 40.872 19.9183L36.4019 17.2197Z" fill="#1E1E1E"/>
<path d="M60.4019 17.2197L55.9329 19.9183C55.8016 19.9831 55.6797 20.0094 55.5673 19.9971C55.4557 19.9839 55.3469 19.9453 55.241 19.8813C55.1343 19.8157 55.0539 19.7229 54.9997 19.6031C54.9456 19.4833 54.9406 19.3524 54.985 19.2104L56.1742 14.1505L52.2408 10.7403C52.13 10.6501 52.057 10.5421 52.0217 10.4166C51.9864 10.291 51.9942 10.1707 52.0451 10.0558C52.096 9.94093 52.1637 9.84655 52.2482 9.77268C52.3336 9.70127 52.4485 9.65285 52.5929 9.62741L57.7833 9.17436L59.8072 4.38288C59.863 4.24745 59.9435 4.14979 60.0485 4.08987C60.1536 4.02996 60.2714 4 60.4019 4C60.5323 4 60.6505 4.02996 60.7564 4.08987C60.8623 4.14979 60.9423 4.24745 60.9965 4.38288L63.0204 9.17436L68.2096 9.62741C68.3548 9.65203 68.4701 9.70086 68.5555 9.77391C68.6409 9.84614 68.709 9.94011 68.7599 10.0558C68.8099 10.1707 68.8173 10.291 68.782 10.4166C68.7467 10.5421 68.6737 10.6501 68.5629 10.7403L64.6295 14.1505L65.8187 19.2104C65.8647 19.3507 65.8602 19.4812 65.8052 19.6019C65.7502 19.7225 65.6694 19.8153 65.5627 19.8801C65.4576 19.9458 65.3489 19.9847 65.2364 19.9971C65.1248 20.0094 65.0033 19.9831 64.872 19.9183L60.4019 17.2197Z" fill="#1E1E1E"/>
<path d="M84.4019 17.2197L79.9329 19.9183C79.8016 19.9831 79.6797 20.0094 79.5673 19.9971C79.4557 19.9839 79.3469 19.9453 79.241 19.8813C79.1343 19.8157 79.0539 19.7229 78.9997 19.6031C78.9456 19.4833 78.9406 19.3524 78.985 19.2104L80.1742 14.1505L76.2408 10.7403C76.13 10.6501 76.057 10.5421 76.0217 10.4166C75.9864 10.291 75.9942 10.1707 76.0451 10.0558C76.096 9.94093 76.1637 9.84655 76.2482 9.77268C76.3336 9.70127 76.4485 9.65285 76.5929 9.62741L81.7833 9.17436L83.8072 4.38288C83.863 4.24745 83.9435 4.14979 84.0485 4.08987C84.1536 4.02996 84.2714 4 84.4019 4C84.5323 4 84.6505 4.02996 84.7564 4.08987C84.8623 4.14979 84.9423 4.24745 84.9965 4.38288L87.0204 9.17436L92.2096 9.62741C92.3548 9.65203 92.4701 9.70086 92.5555 9.77391C92.6409 9.84614 92.709 9.94011 92.7599 10.0558C92.8099 10.1707 92.8173 10.291 92.782 10.4166C92.7467 10.5421 92.6737 10.6501 92.5629 10.7403L88.6295 14.1505L89.8187 19.2104C89.8647 19.3507 89.8602 19.4812 89.8052 19.6019C89.7502 19.7225 89.6694 19.8153 89.5627 19.8801C89.4576 19.9458 89.3489 19.9847 89.2364 19.9971C89.1248 20.0094 89.0033 19.9831 88.872 19.9183L84.4019 17.2197Z" fill="#1E1E1E"/>
<path d="M108.402 6.16799V15.7707L112.28 18.1405L111.264 13.7085L114.681 10.7539L110.187 10.3538L108.402 6.16799ZM108.402 17.2197L103.933 19.9183C103.802 19.9831 103.68 20.0094 103.567 19.9971C103.456 19.9839 103.347 19.9453 103.241 19.8813C103.134 19.8157 103.054 19.7229 103 19.6031C102.946 19.4833 102.941 19.3524 102.985 19.2104L104.174 14.1505L100.241 10.7403C100.13 10.6501 100.057 10.5421 100.022 10.4166C99.9864 10.291 99.9942 10.1707 100.045 10.0558C100.096 9.94093 100.164 9.84655 100.248 9.77268C100.334 9.70127 100.448 9.65285 100.593 9.62741L105.783 9.17436L107.807 4.38288C107.863 4.24745 107.943 4.14979 108.049 4.08987C108.154 4.02996 108.271 4 108.402 4C108.532 4 108.651 4.02996 108.756 4.08987C108.862 4.14979 108.942 4.24745 108.996 4.38288L111.02 9.17436L116.21 9.62741C116.355 9.65203 116.47 9.70086 116.555 9.77391C116.641 9.84614 116.709 9.94011 116.76 10.0558C116.81 10.1707 116.817 10.291 116.782 10.4166C116.747 10.5421 116.674 10.6501 116.563 10.7403L112.629 14.1505L113.819 19.2104C113.865 19.3507 113.86 19.4812 113.805 19.6019C113.75 19.7225 113.669 19.8153 113.563 19.8801C113.458 19.9458 113.349 19.9847 113.236 19.9971C113.125 20.0094 113.003 19.9831 112.872 19.9183L108.402 17.2197Z" fill="#1E1E1E"/>
</svg>
