<svg width="14" height="19" viewBox="0 0 18 21" fill="none" xmlns="http://www.w3.org/2000/svg">
<path d="M17.5607 9.06978C15.8046 9.10881 14.1656 8.56247 12.7608 7.54785V14.5331C12.7608 17.1868 11.1217 19.5282 8.62421 20.4648C6.16571 21.4013 3.35598 20.6989 1.63893 18.7087C-0.117149 16.6795 -0.42934 13.8307 0.819426 11.4893C2.06819 9.18686 4.64377 7.89907 7.2974 8.25028V11.7624C6.08766 11.3722 4.76084 11.8015 4.01939 12.8161C3.31696 13.8697 3.31696 15.2356 4.05841 16.2502C4.79987 17.2648 6.12668 17.6941 7.2974 17.3038C8.50714 16.9136 9.32665 15.7819 9.32665 14.5331V0.874756H12.7608C12.7608 1.18695 12.7608 1.46011 12.8388 1.77231C13.0729 3.0601 13.8144 4.19179 14.9461 4.89422C15.6875 5.40153 16.6241 5.6747 17.5607 5.6747V9.06978Z" fill="white"/>
</svg>
